<mxfile host="app.diagrams.net" modified="2024-07-29T09:58:00.741Z" agent="Mozilla/5.0 (Windows NT 10.0; Win64; x64; rv:128.0) Gecko/20100101 Firefox/128.0" version="24.6.4" etag="0sbhvJO2IDcNgJwi8WFH" type="github">
  <diagram name="Page-1" id="FDsLhiVfGcd6e2jco19g">
    <mxGraphModel>
      <root>
        <mxCell id="0" />
        <mxCell id="1" parent="0" />
      </root>
    </mxGraphModel>
  </diagram>
</mxfile>
